<mxfile host="app.diagrams.net" agent="Mozilla/5.0 (X11; Linux x86_64) AppleWebKit/537.36 (KHTML, like Gecko) Chrome/131.0.0.0 Safari/537.36" version="26.0.6">
  <diagram name="Page-1" id="Z7hyR1rhEcDRdARIU9mL">
    <mxGraphModel dx="1198" dy="663" grid="1" gridSize="10" guides="1" tooltips="1" connect="1" arrows="1" fold="1" page="1" pageScale="1" pageWidth="850" pageHeight="1100" math="0" shadow="0">
      <root>
        <mxCell id="0" />
        <mxCell id="1" parent="0" />
        <mxCell id="eI5gQeJjAux44tKJgHji-1" value="Camera" style="rounded=0;whiteSpace=wrap;html=1;fillColor=#f8cecc;strokeColor=#b85450;" vertex="1" parent="1">
          <mxGeometry x="365" y="510" width="120" height="60" as="geometry" />
        </mxCell>
        <mxCell id="eI5gQeJjAux44tKJgHji-11" value="" style="edgeStyle=orthogonalEdgeStyle;rounded=0;orthogonalLoop=1;jettySize=auto;html=1;startArrow=classic;startFill=1;" edge="1" parent="1" source="eI5gQeJjAux44tKJgHji-2" target="eI5gQeJjAux44tKJgHji-1">
          <mxGeometry relative="1" as="geometry" />
        </mxCell>
        <mxCell id="eI5gQeJjAux44tKJgHji-2" value="Physical Interface" style="rounded=0;whiteSpace=wrap;html=1;fillColor=#ffe6cc;strokeColor=#d79b00;" vertex="1" parent="1">
          <mxGeometry x="365" y="430" width="120" height="60" as="geometry" />
        </mxCell>
        <mxCell id="eI5gQeJjAux44tKJgHji-13" value="" style="edgeStyle=orthogonalEdgeStyle;rounded=0;orthogonalLoop=1;jettySize=auto;html=1;startArrow=classic;startFill=1;" edge="1" parent="1" source="eI5gQeJjAux44tKJgHji-3" target="eI5gQeJjAux44tKJgHji-2">
          <mxGeometry relative="1" as="geometry" />
        </mxCell>
        <mxCell id="eI5gQeJjAux44tKJgHji-3" value="Driver" style="rounded=0;whiteSpace=wrap;html=1;fillColor=#fff2cc;strokeColor=#d6b656;" vertex="1" parent="1">
          <mxGeometry x="365" y="350" width="120" height="60" as="geometry" />
        </mxCell>
        <mxCell id="eI5gQeJjAux44tKJgHji-14" value="" style="edgeStyle=orthogonalEdgeStyle;rounded=0;orthogonalLoop=1;jettySize=auto;html=1;startArrow=classic;startFill=1;" edge="1" parent="1" source="eI5gQeJjAux44tKJgHji-4" target="eI5gQeJjAux44tKJgHji-3">
          <mxGeometry relative="1" as="geometry" />
        </mxCell>
        <mxCell id="eI5gQeJjAux44tKJgHji-4" value="OpenCV" style="rounded=0;whiteSpace=wrap;html=1;fillColor=#d5e8d4;strokeColor=#82b366;" vertex="1" parent="1">
          <mxGeometry x="365" y="270" width="120" height="60" as="geometry" />
        </mxCell>
        <mxCell id="eI5gQeJjAux44tKJgHji-15" value="" style="edgeStyle=orthogonalEdgeStyle;rounded=0;orthogonalLoop=1;jettySize=auto;html=1;startArrow=classic;startFill=1;" edge="1" parent="1" source="eI5gQeJjAux44tKJgHji-5" target="eI5gQeJjAux44tKJgHji-4">
          <mxGeometry relative="1" as="geometry" />
        </mxCell>
        <mxCell id="eI5gQeJjAux44tKJgHji-5" value="ROS" style="rounded=0;whiteSpace=wrap;html=1;fillColor=#dae8fc;strokeColor=#6c8ebf;" vertex="1" parent="1">
          <mxGeometry x="365" y="190" width="120" height="60" as="geometry" />
        </mxCell>
        <mxCell id="eI5gQeJjAux44tKJgHji-16" value="" style="edgeStyle=orthogonalEdgeStyle;rounded=0;orthogonalLoop=1;jettySize=auto;html=1;startArrow=classic;startFill=1;" edge="1" parent="1" source="eI5gQeJjAux44tKJgHji-6" target="eI5gQeJjAux44tKJgHji-5">
          <mxGeometry relative="1" as="geometry" />
        </mxCell>
        <mxCell id="eI5gQeJjAux44tKJgHji-6" value="Application" style="rounded=0;whiteSpace=wrap;html=1;fillColor=#f5f5f5;fontColor=#333333;strokeColor=#666666;" vertex="1" parent="1">
          <mxGeometry x="365" y="110" width="120" height="60" as="geometry" />
        </mxCell>
        <mxCell id="eI5gQeJjAux44tKJgHji-7" value="" style="shape=curlyBracket;whiteSpace=wrap;html=1;rounded=1;flipH=1;labelPosition=right;verticalLabelPosition=middle;align=left;verticalAlign=middle;" vertex="1" parent="1">
          <mxGeometry x="550" y="430" width="20" height="150" as="geometry" />
        </mxCell>
        <mxCell id="eI5gQeJjAux44tKJgHji-8" value="Hardware Architecture" style="text;html=1;align=center;verticalAlign=middle;resizable=0;points=[];autosize=1;strokeColor=none;fillColor=none;" vertex="1" parent="1">
          <mxGeometry x="562" y="490" width="140" height="30" as="geometry" />
        </mxCell>
        <mxCell id="eI5gQeJjAux44tKJgHji-9" value="" style="shape=curlyBracket;whiteSpace=wrap;html=1;rounded=1;flipH=1;labelPosition=right;verticalLabelPosition=middle;align=left;verticalAlign=middle;" vertex="1" parent="1">
          <mxGeometry x="550" y="110" width="20" height="310" as="geometry" />
        </mxCell>
        <mxCell id="eI5gQeJjAux44tKJgHji-10" value="Software Architecture" style="text;html=1;align=center;verticalAlign=middle;resizable=0;points=[];autosize=1;strokeColor=none;fillColor=none;" vertex="1" parent="1">
          <mxGeometry x="564" y="250" width="140" height="30" as="geometry" />
        </mxCell>
      </root>
    </mxGraphModel>
  </diagram>
</mxfile>
